<svg id="svg" version="1.1" xmlns="http://www.w3.org/2000/svg" xmlns:xlink="http://www.w3.org/1999/xlink" width="400" height="400" viewBox="0, 0, 400,400"><g id="svgg"><path id="path0" d="M190.751 7.862 C 51.433 14.383,-31.825 168.459,37.675 291.146 C 42.363 299.422,52.545 313.944,55.104 316.005 C 55.728 316.508,86.814 316.643,200.157 316.633 L 344.416 316.622 345.982 314.952 C 354.393 305.985,366.476 286.593,372.822 271.875 C 406.985 192.639,383.627 100.014,316.247 47.531 C 304.950 38.731,299.545 37.760,289.347 42.697 C 286.367 44.139,286.385 44.306,289.714 46.098 C 319.840 62.313,347.660 94.679,362.497 130.772 C 384.029 183.154,379.140 245.133,349.726 292.684 C 346.247 298.309,346.930 298.206,341.874 293.861 C 330.691 284.250,327.726 282.171,325.508 282.382 C 324.369 282.491,323.438 282.404,323.438 282.188 C 323.438 281.973,321.518 282.505,319.171 283.370 C 310.484 286.573,299.948 286.556,290.726 283.323 C 288.235 282.450,285.026 281.360,283.594 280.901 C 282.161 280.442,279.903 279.513,278.575 278.835 C 276.492 277.773,271.875 277.093,271.875 277.849 C 271.875 277.984,275.066 283.405,278.966 289.895 C 286.395 302.261,287.279 304.746,284.805 306.318 C 284.425 306.559,245.911 306.701,199.219 306.634 L 114.323 306.510 114.168 304.139 C 114.026 301.951,114.471 300.968,119.956 291.379 C 124.009 284.291,125.701 280.874,125.281 280.625 C 124.189 279.979,118.621 280.020,113.802 280.708 C 106.848 281.702,95.843 281.104,90.690 279.452 C 89.837 279.178,89.564 279.234,89.809 279.632 C 90.238 280.325,88.322 280.348,82.870 279.717 C 77.442 279.088,77.083 279.283,65.469 289.153 C 53.768 299.097,54.826 298.512,53.152 295.957 C -7.721 203.043,32.248 74.532,134.635 33.961 C 167.381 20.985,204.454 17.590,234.898 24.779 L 240.369 26.071 246.096 23.520 C 249.246 22.116,253.637 20.293,255.854 19.468 C 261.059 17.532,261.231 17.721,251.693 14.904 C 231.644 8.983,212.953 6.823,190.751 7.862 M282.168 21.202 C 282.815 21.326,283.753 21.322,284.251 21.191 C 284.749 21.061,284.219 20.959,283.073 20.965 C 281.927 20.970,281.520 21.077,282.168 21.202 M291.022 21.202 C 291.670 21.326,292.607 21.322,293.105 21.191 C 293.603 21.061,293.073 20.959,291.927 20.965 C 290.781 20.970,290.374 21.077,291.022 21.202 M316.877 28.045 C 317.152 28.489,315.086 28.646,308.931 28.646 C 295.985 28.646,288.554 30.539,277.980 36.532 C 269.036 41.600,257.849 52.750,256.219 58.219 C 255.528 60.538,253.704 62.767,252.074 63.284 C 251.554 63.449,250.872 64.321,250.558 65.222 C 250.244 66.123,249.592 67.296,249.109 67.830 C 248.626 68.363,248.179 69.152,248.116 69.582 C 247.943 70.762,246.913 71.806,245.929 71.799 C 245.447 71.796,242.708 72.063,239.844 72.393 C 236.979 72.723,233.346 72.837,231.771 72.646 L 228.906 72.300 232.428 75.782 C 237.304 80.602,246.078 98.438,243.574 98.438 C 242.916 98.437,238.440 96.130,234.955 93.993 C 232.839 92.696,231.000 91.743,230.868 91.875 C 230.655 92.088,235.335 97.838,238.858 101.691 C 240.368 103.342,244.412 111.648,243.811 111.863 C 243.589 111.942,240.496 111.166,236.938 110.139 C 231.077 108.447,214.398 107.303,213.190 108.511 C 213.104 108.598,215.246 109.294,217.951 110.058 C 223.860 111.727,230.408 114.679,232.552 116.641 C 234.098 118.056,240.194 122.259,243.784 124.387 C 247.773 126.751,248.196 128.478,244.435 127.046 C 243.629 126.739,240.812 126.043,238.176 125.500 C 235.540 124.957,230.584 123.669,227.163 122.638 L 220.943 120.763 205.263 120.928 C 195.125 121.035,189.521 120.910,189.407 120.573 C 189.300 120.255,186.267 120.070,181.604 120.098 C 174.375 120.141,173.957 120.088,173.640 119.087 C 173.254 117.873,175.934 115.104,177.494 115.104 C 177.998 115.104,180.833 113.829,183.796 112.270 C 187.366 110.392,190.562 109.138,193.275 108.552 C 195.526 108.066,197.243 107.466,197.091 107.219 C 196.429 106.149,187.488 106.884,179.501 108.665 C 178.121 108.973,178.054 108.918,178.589 107.918 C 178.907 107.325,179.167 106.695,179.167 106.520 C 179.167 105.632,174.139 109.859,169.792 114.402 L 164.885 119.531 166.947 119.804 L 169.010 120.076 166.667 121.149 C 164.217 122.270,160.937 125.529,160.938 126.841 C 160.938 127.740,161.139 127.759,163.542 127.093 C 172.338 124.654,184.274 123.915,193.210 125.258 C 197.001 125.827,201.999 126.002,211.827 125.909 C 223.739 125.796,225.614 125.892,228.385 126.759 C 230.104 127.297,233.503 128.174,235.938 128.709 C 238.723 129.320,242.489 130.723,246.094 132.491 C 257.296 137.985,257.638 138.025,255.394 133.564 C 253.710 130.217,250.757 127.223,242.305 120.292 C 239.075 117.644,236.504 115.406,236.590 115.320 C 236.851 115.059,248.266 118.635,249.947 119.504 C 252.053 120.593,252.038 120.605,251.497 118.195 C 250.660 114.469,248.177 109.748,244.877 105.607 C 241.041 100.793,240.974 100.537,244.018 102.320 C 245.311 103.078,246.595 103.558,246.872 103.388 C 247.432 103.041,249.540 104.016,250.102 104.881 C 251.513 107.054,251.956 100.471,250.624 97.135 C 248.276 91.260,244.755 83.704,243.639 82.146 C 240.596 77.898,240.882 77.343,245.312 78.906 C 250.392 80.699,252.428 78.675,259.323 64.978 C 264.863 53.972,265.808 52.916,278.385 43.696 C 288.930 35.965,293.114 34.258,306.436 32.251 C 310.487 31.641,314.036 30.964,314.323 30.747 C 314.609 30.530,315.488 30.198,316.276 30.010 C 317.740 29.660,318.186 28.482,317.107 27.815 C 316.734 27.585,316.647 27.672,316.877 28.045 M197.526 37.879 C 198.600 37.992,200.358 37.992,201.432 37.879 C 202.507 37.767,201.628 37.675,199.479 37.675 C 197.331 37.675,196.452 37.767,197.526 37.879 M340.104 58.496 C 340.104 58.586,340.866 59.348,341.797 60.189 L 343.490 61.719 341.960 60.026 C 340.534 58.448,340.104 58.094,340.104 58.496 M202.311 64.714 L 200.781 66.406 202.474 64.877 C 204.052 63.451,204.406 63.021,204.004 63.021 C 203.914 63.021,203.152 63.783,202.311 64.714 M203.663 70.570 C 200.952 71.230,198.647 72.028,198.542 72.343 C 198.200 73.368,197.396 72.949,197.394 71.745 C 197.392 70.717,197.261 70.788,196.324 72.324 C 194.829 74.776,194.961 74.783,202.352 72.664 C 205.988 71.622,209.085 70.891,209.235 71.041 C 209.523 71.328,212.500 69.940,212.500 69.518 C 212.500 68.947,208.258 69.452,203.663 70.570 M185.994 88.983 C 185.413 89.799,182.825 92.787,180.243 95.624 C 177.660 98.460,175.541 101.052,175.534 101.384 C 175.519 102.060,175.284 102.095,183.010 100.263 C 186.127 99.524,188.770 99.013,188.884 99.127 C 189.270 99.513,185.548 102.041,185.137 101.670 C 184.913 101.468,184.901 101.601,185.112 101.966 C 185.495 102.631,188.447 100.695,190.116 98.683 C 190.498 98.224,191.471 97.506,192.280 97.088 C 195.725 95.306,193.702 94.883,187.684 96.126 C 182.820 97.131,182.968 97.367,185.459 92.558 C 186.603 90.349,187.354 88.538,187.129 88.534 C 186.903 88.529,187.070 88.299,187.500 88.021 C 187.961 87.723,188.029 87.513,187.666 87.508 C 187.327 87.504,186.575 88.167,185.994 88.983 M218.880 107.671 C 219.954 107.783,221.712 107.783,222.786 107.671 C 223.861 107.559,222.982 107.467,220.833 107.467 C 218.685 107.467,217.806 107.559,218.880 107.671 M178.385 130.013 C 172.212 130.765,168.209 131.928,168.512 132.882 C 168.719 133.534,168.565 133.854,168.044 133.854 C 166.743 133.854,160.938 141.308,160.938 142.978 C 160.938 143.155,161.465 143.130,162.109 142.922 C 162.754 142.714,163.633 142.561,164.063 142.582 C 164.492 142.603,166.234 142.387,167.934 142.103 C 169.633 141.819,171.834 141.738,172.824 141.924 L 174.624 142.262 173.195 143.003 C 172.410 143.411,171.520 143.592,171.219 143.406 C 170.900 143.209,170.827 143.318,171.044 143.670 C 171.272 144.038,171.050 144.279,170.473 144.292 C 166.827 144.373,163.844 146.765,160.156 152.566 C 159.870 153.017,159.440 153.529,159.201 153.704 C 158.962 153.879,159.197 154.191,159.722 154.397 C 160.533 154.716,160.390 154.921,158.775 155.758 C 151.542 159.505,151.993 178.779,159.244 175.776 C 159.746 175.568,160.669 175.331,161.296 175.248 C 161.922 175.166,163.915 174.062,165.723 172.794 C 170.443 169.486,173.279 167.963,176.734 166.881 C 178.805 166.232,180.103 165.462,180.817 164.460 C 181.393 163.651,183.601 161.818,185.724 160.385 C 189.276 157.988,190.542 156.820,188.932 157.425 C 186.663 158.278,185.967 158.175,187.760 157.251 C 189.103 156.560,189.381 156.282,188.542 156.471 C 181.313 158.097,175.821 158.102,172.044 156.486 C 170.180 155.688,169.071 155.343,168.068 155.248 C 167.836 155.226,167.761 155.024,167.900 154.799 C 168.176 154.352,167.050 154.140,163.714 154.014 C 162.520 153.968,161.645 153.765,161.771 153.561 C 162.116 153.003,165.162 151.563,165.997 151.563 C 167.672 151.563,172.565 146.179,171.311 145.716 C 170.679 145.482,170.292 145.159,170.453 144.999 C 170.613 144.838,171.203 144.953,171.765 145.254 C 172.339 145.561,173.929 145.664,175.396 145.491 C 178.392 145.136,180.505 145.784,187.780 149.293 C 194.419 152.494,194.315 152.645,190.657 145.118 C 187.197 137.999,184.497 135.938,178.628 135.938 C 175.954 135.938,176.007 136.542,178.776 137.649 L 180.990 138.534 177.748 138.228 C 174.472 137.918,169.783 139.004,166.041 140.939 C 164.049 141.970,164.215 141.323,166.683 138.444 C 172.011 132.228,184.418 131.864,190.234 137.754 C 191.748 139.287,192.039 139.170,191.095 137.405 C 190.644 136.563,190.672 136.386,191.225 136.568 C 192.271 136.911,193.258 140.333,193.748 145.313 C 194.283 150.751,194.629 151.727,195.905 151.393 C 196.439 151.253,196.875 151.352,196.875 151.611 C 196.875 151.871,197.493 152.083,198.247 152.083 L 199.620 152.083 198.271 153.144 C 196.273 154.716,196.928 155.681,199.636 155.156 C 200.839 154.923,203.094 154.723,204.648 154.710 L 207.473 154.688 206.341 153.482 C 204.882 151.929,204.908 151.467,206.434 151.850 C 207.587 152.140,207.681 151.982,208.008 149.201 C 208.199 147.575,208.560 145.859,208.809 145.388 C 209.059 144.917,209.377 143.242,209.516 141.667 C 209.840 137.976,210.714 136.161,212.781 134.883 C 214.840 133.610,215.527 133.562,214.449 134.766 C 213.431 135.903,210.938 141.500,210.938 142.649 C 210.938 143.187,212.290 142.203,214.594 139.988 C 223.152 131.763,234.324 132.182,242.588 141.037 C 244.827 143.435,245.178 142.916,243.525 139.653 C 239.901 132.501,232.299 129.488,223.177 131.586 C 220.869 132.117,217.591 132.388,214.244 132.325 C 210.966 132.264,208.826 132.437,208.614 132.780 C 208.223 133.413,202.558 133.523,199.935 132.948 L 198.177 132.563 200.521 132.285 C 201.810 132.132,199.790 131.983,196.031 131.953 C 191.422 131.917,188.371 131.636,186.656 131.090 C 183.697 130.147,180.596 129.743,178.385 130.013 M132.664 133.134 C 131.548 134.251,134.340 139.387,135.766 138.840 C 136.128 138.701,136.544 138.779,136.689 139.014 C 136.834 139.249,138.594 140.552,140.601 141.911 C 145.096 144.954,147.647 147.722,149.316 151.368 C 150.772 154.548,151.465 154.549,153.884 151.377 C 155.758 148.921,155.685 147.536,153.496 143.933 C 151.389 140.464,150.782 140.104,139.583 135.687 C 136.862 134.614,134.413 133.528,134.141 133.274 C 133.559 132.732,133.110 132.689,132.664 133.134 M279.427 136.554 C 261.720 140.480,255.159 145.907,258.087 154.205 C 259.608 158.518,260.645 158.797,262.268 155.328 C 263.035 153.687,264.024 151.934,264.465 151.432 C 264.905 150.931,265.076 150.521,264.845 150.521 C 264.614 150.521,265.574 149.466,266.978 148.176 C 269.325 146.021,274.139 143.229,275.509 143.229 C 276.276 143.229,280.255 141.212,281.305 140.291 C 282.150 139.550,283.854 139.816,283.854 140.689 C 283.854 140.950,282.816 142.158,281.547 143.374 C 279.352 145.477,279.243 145.722,279.277 148.443 C 279.304 150.533,278.873 152.353,277.677 155.208 L 276.041 159.115 276.348 155.729 C 276.820 150.517,276.137 149.315,274.250 152.038 C 272.673 154.313,271.709 155.033,273.117 152.883 C 275.225 149.666,273.081 151.160,270.771 154.518 C 269.811 155.914,269.532 156.638,270.029 156.447 C 271.339 155.944,271.507 157.538,270.568 161.570 L 269.684 165.365 271.506 168.369 L 273.329 171.373 274.719 169.721 C 276.616 167.467,279.260 162.050,280.914 157.031 C 282.179 153.190,285.931 137.979,285.936 136.671 C 285.938 135.981,282.308 135.915,279.427 136.554 M227.293 136.951 C 226.405 137.163,224.334 138.065,222.689 138.955 C 220.790 139.984,219.811 140.299,220.006 139.819 C 220.175 139.403,220.470 138.672,220.662 138.195 C 221.327 136.542,216.191 140.610,214.076 143.411 C 211.558 146.746,210.140 149.932,210.855 150.647 C 211.440 151.232,216.829 149.642,216.433 149.001 C 215.677 147.778,223.926 145.327,228.826 145.319 C 233.020 145.311,235.001 146.249,236.220 148.818 C 236.671 149.768,237.944 151.117,239.049 151.815 C 242.063 153.717,242.102 154.194,239.220 153.895 C 237.844 153.753,237.024 153.779,237.397 153.954 C 237.913 154.196,237.851 154.443,237.137 154.984 C 236.376 155.561,236.346 155.711,236.979 155.772 C 237.409 155.815,236.823 156.054,235.677 156.304 C 229.357 157.686,226.959 157.894,220.964 157.578 C 213.630 157.191,213.361 157.408,217.925 160.033 C 219.762 161.090,221.760 162.649,222.365 163.498 C 222.969 164.346,224.805 165.667,226.445 166.432 C 232.887 169.438,234.394 170.320,238.680 173.590 C 244.715 178.195,247.334 178.485,249.738 174.815 C 250.225 174.071,250.912 173.620,251.320 173.777 C 253.648 174.670,252.806 166.285,250.006 160.713 C 247.802 156.326,247.715 155.047,249.784 157.451 C 251.272 159.180,251.280 159.125,250.486 152.379 C 249.833 146.836,249.406 145.589,247.880 144.772 C 247.104 144.357,246.860 144.347,247.103 144.740 C 247.509 145.397,245.802 151.563,245.214 151.563 C 245.001 151.563,244.013 150.749,243.019 149.755 C 239.188 145.924,236.282 144.622,231.846 144.747 C 228.633 144.838,227.991 144.732,228.518 144.198 C 229.717 142.985,238.345 142.993,241.814 144.211 C 243.470 144.792,244.687 145.044,244.518 144.769 C 244.348 144.495,243.952 144.271,243.638 144.271 C 243.324 144.271,242.309 143.693,241.382 142.986 C 239.551 141.589,233.365 139.088,231.579 139.021 C 230.855 138.995,230.740 138.890,231.250 138.720 C 233.562 137.948,233.590 137.894,232.031 137.201 C 230.290 136.426,229.634 136.391,227.293 136.951 M132.975 138.812 C 133.140 139.666,133.772 143.060,134.381 146.354 C 136.459 157.589,137.016 159.742,138.824 163.514 L 140.631 167.286 142.321 166.202 C 144.202 164.995,144.608 159.669,143.013 157.121 C 142.623 156.499,142.015 154.734,141.660 153.200 C 140.874 149.799,140.124 150.508,140.112 154.661 C 140.107 156.414,139.919 157.311,139.621 157.005 C 138.928 156.295,136.979 148.333,136.979 146.210 C 136.979 145.155,136.442 143.625,135.677 142.497 C 134.961 141.442,134.375 140.149,134.375 139.624 C 134.375 139.099,133.993 138.352,133.526 137.965 C 132.766 137.334,132.708 137.423,132.975 138.812 M174.873 148.114 C 173.092 148.903,169.792 152.055,169.792 152.967 C 169.792 153.992,170.679 153.782,171.540 152.553 C 172.530 151.139,175.530 149.106,177.273 148.669 C 178.024 148.481,178.509 148.117,178.351 147.861 C 177.968 147.241,176.621 147.339,174.873 148.114 M229.948 149.299 C 230.807 149.749,232.507 151.078,233.724 152.251 C 236.115 154.554,236.587 154.459,234.852 152.022 C 233.781 150.518,230.365 148.418,229.057 148.458 C 228.688 148.470,229.089 148.848,229.948 149.299 M216.271 152.604 C 215.078 153.750,213.611 154.688,213.010 154.688 C 212.409 154.688,212.049 154.900,212.209 155.159 C 212.743 156.022,214.426 155.147,216.709 152.821 C 219.526 149.951,219.200 149.790,216.271 152.604 M174.479 153.385 C 173.620 154.421,174.648 155.729,176.321 155.729 C 177.430 155.729,177.472 155.620,176.924 154.167 C 176.275 152.447,175.471 152.190,174.479 153.385 M229.295 154.452 C 228.753 156.217,228.766 156.240,230.128 155.944 C 233.373 155.236,233.661 154.632,231.329 153.426 C 229.862 152.668,229.839 152.679,229.295 154.452 M182.141 154.688 C 181.836 155.853,182.762 156.093,183.750 155.104 C 184.654 154.200,184.519 153.646,183.394 153.646 C 182.851 153.646,182.292 154.111,182.141 154.688 M218.902 154.638 C 218.363 155.501,218.456 155.673,219.619 155.965 C 221.252 156.375,221.394 156.255,221.012 154.795 C 220.643 153.383,219.728 153.315,218.902 154.638 M225.521 155.469 C 225.521 155.898,225.965 156.250,226.507 156.250 C 227.049 156.250,227.628 155.898,227.793 155.469 C 228.009 154.904,227.735 154.688,226.807 154.688 C 226.011 154.688,225.521 154.985,225.521 155.469 M254.407 155.990 C 254.954 157.394,256.212 167.850,256.225 171.094 C 256.242 175.498,254.866 180.216,253.108 181.786 C 252.258 182.545,251.563 183.438,251.563 183.770 C 251.563 184.814,252.938 184.428,253.582 183.203 C 254.066 182.284,254.131 182.256,253.884 183.073 C 253.710 183.646,253.527 184.336,253.477 184.607 C 253.357 185.254,259.772 186.497,261.490 186.160 C 262.223 186.016,263.334 186.087,263.958 186.318 L 265.093 186.738 264.008 188.931 C 258.808 199.440,237.883 203.401,221.066 197.059 C 220.481 196.839,220.911 197.492,222.085 198.606 C 224.915 201.290,224.018 201.628,220.573 199.175 C 218.998 198.053,216.827 196.513,215.749 195.752 C 214.376 194.782,213.371 194.448,212.393 194.635 L 210.997 194.902 212.195 196.193 C 213.200 197.277,216.172 204.551,216.152 205.880 C 216.144 206.404,211.743 201.014,210.471 198.922 C 209.369 197.111,208.854 197.716,208.854 200.824 C 208.854 201.803,208.637 202.604,208.372 202.604 C 208.106 202.604,207.782 203.014,207.651 203.516 C 207.520 204.017,207.385 203.672,207.352 202.749 C 207.266 200.348,204.980 195.445,203.846 195.227 C 199.400 194.371,197.288 196.484,194.700 204.379 C 193.726 207.352,193.457 207.789,193.323 206.619 C 193.151 205.124,194.014 198.671,194.584 197.186 C 195.526 194.730,192.657 196.652,189.929 200.304 C 186.790 204.507,186.279 204.428,188.109 200.024 C 188.977 197.936,189.089 197.213,188.591 196.906 C 188.095 196.599,188.144 196.305,188.801 195.649 C 189.892 194.558,188.739 194.453,187.225 195.506 C 186.660 195.899,185.378 196.385,184.375 196.586 C 183.372 196.787,181.214 197.399,179.579 197.947 C 163.962 203.174,146.762 200.416,138.689 191.390 L 135.717 188.068 134.506 191.039 C 133.120 194.442,132.294 199.378,132.353 203.906 L 132.395 207.031 133.059 204.948 C 134.893 199.195,136.920 197.788,135.970 202.927 C 134.773 209.400,135.686 215.741,138.655 221.582 L 139.952 224.134 140.220 220.531 C 140.505 216.694,143.155 208.954,144.592 207.762 C 145.309 207.167,145.349 207.510,144.963 210.970 C 143.987 219.729,145.117 228.803,147.748 233.333 C 148.164 234.049,148.379 234.226,148.227 233.726 C 147.649 231.823,146.290 223.889,146.457 223.388 C 146.554 223.100,147.214 223.835,147.925 225.021 C 148.637 226.208,149.739 227.802,150.374 228.563 L 151.530 229.948 151.546 228.546 C 151.571 226.422,152.445 226.325,153.120 228.371 C 154.243 231.773,157.302 237.555,157.813 237.239 C 158.111 237.055,158.180 237.294,157.978 237.819 C 157.746 238.425,157.831 238.591,158.245 238.336 C 158.597 238.118,158.854 238.261,158.854 238.674 C 158.854 240.925,161.776 242.335,165.461 241.862 L 169.010 241.406 168.835 237.571 C 168.713 234.904,168.831 233.843,169.225 234.086 C 169.537 234.279,169.792 235.018,169.792 235.729 C 169.792 238.927,173.610 243.750,176.143 243.750 C 176.981 243.750,177.533 243.965,177.371 244.227 C 177.066 244.721,182.269 246.620,185.340 247.136 C 189.381 247.815,192.695 250.536,196.756 256.510 C 198.680 259.341,199.165 260.562,200.223 265.256 C 200.428 266.164,200.774 266.571,201.145 266.342 C 201.538 266.100,201.627 266.269,201.407 266.842 C 201.224 267.318,201.284 267.708,201.541 267.708 C 201.797 267.708,202.114 268.118,202.245 268.620 C 202.377 269.124,202.510 268.823,202.544 267.947 C 202.618 265.998,207.290 259.581,207.916 260.566 C 208.207 261.024,208.320 260.983,208.327 260.417 C 208.334 259.767,211.904 254.028,212.856 253.134 C 213.341 252.678,212.418 256.417,211.638 258.073 C 210.590 260.295,211.764 258.778,215.264 253.387 C 218.143 248.954,219.667 247.689,226.188 244.322 C 232.332 241.150,234.378 239.647,235.847 237.224 C 237.270 234.878,238.702 234.248,239.267 235.720 C 239.709 236.871,239.664 237.090,239.063 236.719 C 238.272 236.230,238.440 236.952,239.323 237.835 C 240.017 238.529,240.104 238.471,240.104 237.308 C 240.104 236.588,240.305 235.875,240.550 235.724 C 240.795 235.572,240.878 236.064,240.734 236.816 C 240.474 238.173,240.491 238.181,242.965 237.842 C 244.336 237.654,245.984 237.500,246.627 237.500 C 247.377 237.500,247.898 237.107,248.082 236.403 C 248.371 235.297,249.855 235.287,249.609 236.393 C 249.538 236.715,249.655 236.970,249.870 236.959 C 250.442 236.928,254.638 228.199,254.168 228.018 C 253.949 227.934,255.018 227.005,256.543 225.954 C 259.568 223.871,259.653 224.062,257.525 228.177 C 257.068 229.061,256.789 229.879,256.905 229.995 C 257.275 230.366,259.594 224.958,259.514 223.907 C 259.472 223.350,259.624 223.009,259.851 223.150 C 260.253 223.398,262.942 217.156,263.099 215.612 C 263.142 215.190,263.357 215.898,263.577 217.188 C 263.983 219.565,263.726 210.362,263.257 205.729 C 263.052 203.700,263.224 203.980,264.531 207.813 C 265.363 210.247,266.193 213.997,266.376 216.146 C 266.560 218.294,267.084 220.923,267.540 221.987 L 268.371 223.922 269.778 220.946 C 272.645 214.880,274.039 208.742,274.068 202.052 C 274.088 197.439,273.045 190.625,272.318 190.625 C 272.041 190.625,271.954 190.397,272.126 190.119 C 272.298 189.841,272.046 189.013,271.566 188.280 C 270.017 185.916,271.244 186.253,273.698 188.866 C 277.087 192.474,275.730 188.664,271.080 181.510 C 269.590 179.219,267.315 175.703,266.025 173.698 C 264.734 171.693,262.699 168.880,261.503 167.448 C 260.306 166.016,258.268 162.739,256.973 160.166 C 254.722 155.691,253.543 153.773,254.407 155.990 M197.501 156.704 C 195.212 157.866,193.673 159.492,192.598 161.884 C 187.946 172.232,205.666 177.774,211.219 167.708 L 211.937 166.406 211.958 168.056 C 212.000 171.394,213.504 172.313,216.030 170.543 C 217.818 169.291,217.688 164.997,215.809 163.256 C 214.306 161.863,213.773 161.704,213.281 162.500 C 212.723 163.403,212.099 163.071,211.567 161.589 C 209.843 156.790,202.413 154.210,197.501 156.704 M241.398 156.727 C 242.248 157.059,242.073 157.197,240.404 157.510 C 239.289 157.719,236.598 158.717,234.423 159.728 C 230.128 161.724,224.676 162.384,223.360 161.068 C 222.839 160.547,223.276 160.414,225.547 160.405 C 227.149 160.399,229.293 159.983,230.469 159.450 C 231.615 158.931,233.958 158.091,235.677 157.582 C 237.396 157.074,239.036 156.585,239.323 156.495 C 240.076 156.260,240.252 156.279,241.398 156.727 M171.354 159.099 C 174.609 160.287,175.825 160.480,178.646 160.258 C 180.790 160.089,181.458 160.142,180.469 160.403 C 177.688 161.135,173.174 160.960,169.224 159.968 C 167.101 159.434,164.661 158.822,163.802 158.606 C 162.386 158.251,162.337 158.172,163.281 157.768 C 164.779 157.126,166.910 157.477,171.354 159.099 M188.435 163.307 C 186.172 164.535,185.217 168.978,186.890 170.492 C 188.412 171.870,191.354 171.675,190.590 170.247 C 190.206 169.529,190.122 167.969,190.352 165.819 C 190.732 162.275,190.616 162.123,188.435 163.307 M148.623 168.594 C 147.722 169.717,145.999 172.262,144.794 174.250 C 143.589 176.238,141.307 179.572,139.722 181.659 C 138.138 183.745,137.005 185.616,137.205 185.816 C 138.756 187.367,150.313 185.103,152.621 182.796 C 153.137 182.280,153.733 182.014,153.946 182.205 C 154.159 182.396,154.163 182.255,153.954 181.893 C 153.745 181.530,153.356 181.368,153.089 181.533 C 152.822 181.697,152.604 181.366,152.604 180.797 C 152.604 180.228,152.216 179.374,151.742 178.899 C 151.089 178.246,150.804 176.642,150.570 172.294 L 150.260 166.551 148.623 168.594 M220.894 171.717 C 219.624 174.331,217.038 175.801,212.677 176.388 C 211.291 176.575,209.453 177.242,208.594 177.870 C 207.734 178.498,206.611 179.161,206.097 179.342 C 204.341 179.962,208.987 185.938,211.225 185.938 C 211.841 185.938,213.260 186.601,214.379 187.412 C 216.234 188.756,218.968 189.875,219.906 189.674 C 220.113 189.630,221.141 190.177,222.193 190.891 C 224.193 192.248,225.000 192.492,225.000 191.739 C 225.000 191.492,225.607 191.406,226.350 191.548 C 227.121 191.696,227.452 191.960,227.122 192.164 C 226.793 192.367,227.685 193.056,229.186 193.759 C 234.479 196.238,256.771 194.301,256.771 191.362 C 256.771 191.209,256.536 191.229,256.250 191.406 C 255.964 191.583,255.729 191.498,255.729 191.217 C 255.729 190.936,256.608 190.404,257.682 190.035 L 259.635 189.365 256.156 188.960 C 251.316 188.396,247.859 186.960,242.708 183.373 C 240.273 181.678,236.109 178.948,233.454 177.308 C 228.087 173.992,227.651 173.376,231.833 175.024 L 234.635 176.128 233.333 174.732 C 231.739 173.023,228.814 171.478,224.940 170.299 L 222.016 169.409 220.894 171.717 M176.263 171.825 C 168.411 175.089,166.239 176.687,172.656 174.479 C 178.114 172.601,177.499 173.242,170.124 177.116 C 168.445 177.998,165.606 179.871,163.814 181.279 C 158.157 185.725,149.730 189.063,144.161 189.063 C 141.373 189.063,141.256 189.186,142.639 190.670 C 147.699 196.102,180.419 197.026,182.165 191.787 C 182.307 191.361,182.057 191.260,181.424 191.487 C 180.898 191.676,181.172 191.284,182.031 190.618 C 182.891 189.951,184.258 188.802,185.069 188.063 L 186.545 186.719 186.164 188.774 L 185.783 190.828 188.074 189.145 C 193.931 184.839,199.483 179.167,197.840 179.167 C 197.512 179.167,196.242 178.346,195.018 177.344 C 193.083 175.758,192.426 175.521,189.968 175.521 C 186.436 175.521,182.896 173.796,181.732 171.507 L 180.911 169.894 176.263 171.825 M199.096 186.708 C 198.742 187.111,198.039 187.683,197.534 187.981 C 196.020 188.873,197.715 189.566,201.432 189.575 C 204.839 189.584,205.387 189.229,203.646 188.142 C 203.073 187.784,202.604 187.142,202.604 186.714 C 202.604 185.710,199.979 185.705,199.096 186.708 M396.555 196.354 C 396.555 199.935,396.638 201.400,396.740 199.609 C 396.841 197.819,396.841 194.889,396.740 193.099 C 396.638 191.309,396.555 192.773,396.555 196.354 M185.417 198.106 C 185.417 198.444,181.470 201.042,180.962 201.039 C 180.691 201.038,181.523 200.336,182.813 199.479 C 185.209 197.886,185.417 197.777,185.417 198.106 M122.380 209.301 C 117.601 212.088,115.230 214.098,109.229 220.448 C 105.178 224.734,102.351 227.274,100.908 227.923 C 98.733 228.902,93.765 232.813,94.696 232.813 C 94.965 232.813,96.042 232.455,97.088 232.017 C 99.323 231.084,108.289 229.963,112.760 230.059 C 115.685 230.122,128.049 233.462,130.794 234.930 C 131.380 235.244,131.967 235.394,132.098 235.263 C 132.389 234.972,126.040 229.167,125.432 229.167 C 125.194 229.167,125.000 228.914,125.000 228.604 C 125.000 227.911,131.708 228.513,132.682 229.294 C 133.619 230.044,133.530 229.739,131.558 225.464 C 130.582 223.347,129.253 219.740,128.606 217.448 C 127.958 215.156,127.109 212.903,126.719 212.442 C 125.617 211.136,124.974 208.437,125.696 208.143 C 126.039 208.002,125.963 207.901,125.521 207.910 C 125.091 207.918,123.678 208.544,122.380 209.301 M281.522 209.505 C 281.404 209.863,280.798 211.914,280.177 214.063 C 279.144 217.631,276.501 223.266,274.246 226.709 L 273.347 228.080 277.429 228.232 L 281.510 228.385 277.865 229.554 C 275.859 230.197,273.256 231.368,272.080 232.158 C 270.903 232.948,268.989 234.229,267.827 235.005 C 264.801 237.024,264.804 237.322,267.851 237.675 C 270.014 237.926,271.555 237.682,275.357 236.487 C 284.488 233.616,295.301 232.995,299.387 235.109 C 306.176 238.619,299.433 229.559,291.476 224.479 C 289.008 222.904,286.987 221.376,286.984 221.084 C 286.981 220.792,286.335 220.135,285.547 219.624 L 284.115 218.695 287.370 218.886 C 289.160 218.991,290.625 218.993,290.625 218.890 C 290.625 216.426,282.131 207.669,281.522 209.505 M129.698 229.977 C 131.325 230.878,131.806 230.905,131.488 230.078 C 131.350 229.720,130.600 229.390,129.822 229.344 L 128.406 229.262 129.698 229.977 M105.530 238.079 C 90.391 241.633,83.336 258.356,93.961 265.499 C 101.111 270.307,125.131 270.183,125.320 265.338 C 125.437 262.364,125.555 262.257,126.645 264.136 C 128.488 267.315,132.915 269.207,134.380 267.441 C 136.182 265.270,136.984 268.802,135.671 273.130 C 133.696 279.642,138.151 283.475,140.940 277.663 C 141.543 276.407,142.598 274.939,143.284 274.401 C 144.407 273.521,144.448 273.360,143.691 272.774 C 139.665 269.661,136.900 266.262,140.633 269.017 C 143.986 271.490,145.124 270.351,144.643 265.001 C 144.282 260.970,144.065 260.370,142.668 259.536 C 141.958 259.112,141.823 258.912,142.360 259.079 C 142.885 259.242,143.540 259.375,143.815 259.375 C 144.905 259.375,149.463 264.259,150.058 266.064 C 150.403 267.112,151.109 268.555,151.627 269.271 C 152.145 269.987,152.816 271.706,153.119 273.092 C 155.593 284.400,164.752 285.058,162.961 273.798 C 161.265 263.138,157.858 256.883,152.118 253.892 C 149.085 252.312,150.870 252.121,154.427 253.646 C 157.358 254.902,158.177 254.973,157.281 253.894 C 154.692 250.774,158.065 253.499,166.408 261.268 C 166.982 261.802,168.601 265.130,170.006 268.662 C 172.828 275.756,174.610 278.125,177.123 278.125 C 181.343 278.125,181.591 274.950,178.321 262.776 C 177.081 258.159,172.852 253.709,166.011 249.822 L 164.323 248.863 166.146 249.173 C 167.148 249.344,168.483 249.584,169.112 249.706 C 170.191 249.917,172.500 251.354,180.928 257.061 C 182.900 258.396,184.274 259.639,183.983 259.822 C 183.645 260.035,183.981 261.854,184.910 264.844 C 185.711 267.422,186.756 270.896,187.232 272.565 C 189.545 280.663,195.191 279.012,194.646 270.397 C 194.078 261.421,190.765 255.763,186.296 256.133 C 182.675 256.434,180.468 255.473,183.609 254.963 C 189.271 254.044,189.467 254.320,180.845 251.066 C 177.092 249.650,173.011 247.951,171.776 247.292 C 167.199 244.849,146.986 245.851,137.588 248.987 C 132.782 250.592,132.627 249.786,137.269 247.323 C 140.273 245.730,140.088 245.413,134.857 243.174 C 122.778 238.004,113.050 236.314,105.530 238.079 M282.813 240.972 C 278.655 241.627,278.693 241.572,280.990 243.591 C 282.135 244.598,282.679 245.294,282.197 245.137 C 273.083 242.169,242.393 241.551,236.426 244.214 C 231.626 246.357,222.623 251.668,221.487 253.028 C 214.187 261.764,210.712 274.733,216.182 272.826 C 217.796 272.263,217.950 271.957,218.747 267.739 C 219.041 266.181,220.032 262.548,220.950 259.666 C 221.867 256.785,222.549 254.193,222.464 253.906 C 222.379 253.620,222.473 253.549,222.672 253.749 C 222.872 253.949,226.278 252.480,230.241 250.486 C 241.412 244.864,243.456 244.852,235.038 250.457 C 228.135 255.053,226.994 256.348,225.543 261.236 C 222.736 270.694,223.842 276.563,228.434 276.563 C 229.415 276.563,231.922 274.104,231.552 273.504 C 231.198 272.932,235.147 261.125,236.007 260.182 C 236.255 259.910,236.467 259.324,236.478 258.880 C 236.497 258.066,238.081 256.749,243.099 253.371 C 244.603 252.359,245.833 251.303,245.833 251.026 C 245.833 250.748,246.082 250.521,246.385 250.521 C 246.688 250.521,246.804 250.736,246.641 250.998 C 246.479 251.261,247.579 250.796,249.085 249.966 C 252.949 247.836,253.676 248.076,250.635 250.479 C 243.070 256.459,239.682 262.522,238.783 271.684 C 237.782 281.902,246.602 278.904,249.759 267.953 C 250.252 266.243,251.151 264.141,251.756 263.281 C 254.042 260.033,260.151 253.730,258.636 256.182 C 258.025 257.170,259.210 256.839,260.767 255.587 C 264.349 252.706,264.250 252.756,263.843 254.037 L 263.474 255.200 265.925 254.150 C 269.442 252.642,269.250 253.102,265.027 256.296 C 260.411 259.786,257.290 265.284,255.515 273.051 C 254.000 279.679,260.993 279.150,264.211 272.394 C 265.992 268.653,272.917 262.157,272.917 264.226 C 272.917 268.819,278.509 266.845,281.869 261.066 C 282.577 259.848,283.314 259.008,283.505 259.200 C 284.042 259.736,283.919 263.825,283.319 265.403 C 282.627 267.223,282.883 267.424,284.261 266.140 C 286.006 264.515,287.106 266.438,285.717 268.686 C 284.986 269.868,290.294 271.877,298.327 273.457 C 320.250 277.770,329.853 259.450,312.363 246.680 C 308.890 244.144,299.592 240.859,298.625 241.826 C 298.487 241.964,297.158 241.753,295.672 241.357 C 293.191 240.697,285.939 240.479,282.813 240.972 M200.651 278.141 C 198.658 278.942,199.348 279.688,202.083 279.688 C 204.340 279.688,204.688 279.549,204.688 278.646 C 204.688 277.495,202.834 277.264,200.651 278.141 M209.375 278.519 C 209.375 279.346,209.846 279.610,211.791 279.877 C 215.689 280.411,217.824 280.293,217.576 279.557 C 217.455 279.197,216.752 278.979,216.002 279.070 C 214.735 279.222,212.404 278.731,210.286 277.865 C 209.601 277.585,209.375 277.747,209.375 278.519 M128.464 283.125 C 127.255 284.785,127.237 284.776,130.990 284.415 L 134.115 284.115 132.472 282.943 C 130.384 281.453,129.658 281.486,128.464 283.125 M262.240 282.930 C 260.268 283.554,258.399 283.810,257.176 283.623 C 255.591 283.380,255.293 283.469,255.539 284.111 C 255.790 284.764,257.205 284.896,263.955 284.896 L 272.070 284.896 270.667 283.432 C 268.949 281.638,266.734 281.507,262.240 282.930 M143.229 283.594 L 142.006 284.896 144.398 284.896 C 145.713 284.896,147.161 285.038,147.614 285.212 C 148.206 285.439,148.438 285.216,148.438 284.418 C 148.438 283.705,147.959 283.126,147.102 282.800 C 145.123 282.047,144.577 282.159,143.229 283.594 M168.750 282.770 C 168.750 283.033,168.630 283.560,168.483 283.942 C 168.277 284.479,168.837 284.594,170.957 284.452 C 174.359 284.224,175.915 283.236,173.649 282.744 C 171.284 282.230,168.750 282.243,168.750 282.770 M193.750 284.115 C 193.750 285.370,193.872 285.417,197.135 285.417 C 200.399 285.417,200.521 285.370,200.521 284.115 C 200.521 282.859,200.399 282.813,197.135 282.813 C 193.872 282.813,193.750 282.859,193.750 284.115 M205.208 283.269 C 205.208 283.544,205.062 284.150,204.884 284.615 C 204.597 285.361,205.073 285.443,208.920 285.309 C 212.883 285.170,213.281 285.061,213.281 284.115 C 213.281 283.176,212.883 283.058,209.245 282.921 C 206.907 282.833,205.208 282.979,205.208 283.269 M219.460 283.657 C 219.268 284.195,219.015 284.811,218.899 285.026 C 218.783 285.241,220.460 285.417,222.626 285.417 C 226.215 285.417,226.563 285.325,226.563 284.375 C 226.563 283.587,226.213 283.332,225.130 283.328 C 224.342 283.324,222.823 283.177,221.754 283.001 C 220.151 282.736,219.749 282.851,219.460 283.657 M230.208 284.245 C 230.208 285.372,230.384 285.417,234.847 285.417 C 239.229 285.417,239.471 285.359,239.213 284.375 C 238.992 283.530,238.485 283.326,236.528 283.296 C 235.201 283.275,233.236 283.216,232.161 283.165 C 230.455 283.085,230.208 283.221,230.208 284.245 M178.744 284.245 C 179.033 285.755,188.542 285.901,188.542 284.395 C 188.542 283.401,188.225 283.333,183.556 283.333 C 179.088 283.333,178.588 283.428,178.744 284.245 M243.750 284.070 C 243.750 284.614,244.672 284.857,247.266 284.998 C 251.382 285.221,251.154 285.274,250.738 284.189 C 250.293 283.029,243.750 282.918,243.750 284.070 M124.769 289.178 C 123.445 291.069,123.674 291.146,130.646 291.146 C 137.515 291.146,138.542 290.770,138.542 288.257 C 138.542 287.240,125.516 288.112,124.769 289.178 M143.037 289.193 C 142.864 289.837,142.719 290.540,142.715 290.755 C 142.697 291.745,150.995 291.165,151.544 290.138 C 152.571 288.220,152.210 288.021,147.717 288.021 C 143.629 288.021,143.331 288.096,143.037 289.193 M166.080 288.260 C 165.949 288.391,163.768 288.567,161.235 288.651 C 157.001 288.790,156.593 288.897,156.196 289.974 C 155.766 291.136,155.803 291.146,160.580 291.146 L 165.397 291.146 165.986 289.583 C 166.558 288.070,166.580 287.761,166.080 288.260 M170.660 288.368 C 170.016 289.012,170.306 290.511,171.136 290.830 C 174.348 292.062,178.125 290.672,178.125 288.257 C 178.125 287.879,171.043 287.985,170.660 288.368 M182.338 289.669 C 181.675 291.577,181.876 291.667,186.806 291.667 C 190.205 291.667,191.146 291.507,191.146 290.928 C 191.146 290.522,191.281 289.836,191.447 289.405 C 191.698 288.751,191.003 288.592,187.284 288.451 C 182.855 288.283,182.817 288.292,182.338 289.669 M232.236 288.411 L 222.024 288.563 222.270 289.855 L 222.517 291.146 236.779 291.146 C 244.624 291.146,251.042 291.044,251.042 290.919 C 251.042 288.624,250.001 288.022,246.237 288.139 C 244.153 288.205,237.852 288.327,232.236 288.411 M255.416 288.378 C 254.570 288.545,254.377 288.885,254.565 289.870 L 254.809 291.146 265.178 291.146 L 275.548 291.146 274.740 289.583 L 273.932 288.021 265.221 288.092 C 260.430 288.131,256.018 288.260,255.416 288.378 M196.354 290.104 L 196.354 291.667 199.982 291.667 C 203.035 291.667,203.695 291.507,204.148 290.659 C 205.169 288.752,204.809 288.542,200.521 288.542 L 196.354 288.542 196.354 290.104 M209.722 288.889 C 208.028 290.583,209.417 291.667,213.281 291.667 C 215.430 291.667,217.191 291.491,217.195 291.276 C 217.199 291.061,217.343 290.358,217.516 289.714 C 217.829 288.544,210.810 287.801,209.722 288.889 M320.196 290.988 C 322.481 292.073,323.583 293.769,323.143 295.522 C 322.931 296.366,323.134 297.582,323.676 298.725 C 326.896 305.511,315.825 310.455,306.943 306.197 C 304.729 305.136,300.567 301.080,300.463 299.881 C 300.192 296.756,300.269 293.124,300.611 292.913 C 300.841 292.771,302.380 292.283,304.030 291.830 C 305.681 291.376,308.086 290.687,309.375 290.299 C 312.213 289.445,317.677 289.793,320.196 290.988 M306.120 295.135 C 303.818 296.090,303.747 296.602,305.454 299.972 C 308.745 306.465,321.904 306.541,320.953 300.061 C 320.293 295.562,311.850 292.758,306.120 295.135 M120.323 297.375 C 119.744 298.510,119.271 299.564,119.271 299.719 C 119.271 299.873,122.612 300.000,126.697 300.000 L 134.122 300.000 135.538 297.656 L 136.954 295.313 129.164 295.313 L 121.375 295.313 120.323 297.375 M141.508 296.745 C 141.349 297.533,141.056 298.599,140.856 299.114 C 140.526 299.968,140.807 300.037,144.027 299.895 L 147.560 299.740 148.498 297.526 L 149.436 295.313 145.617 295.313 C 141.867 295.313,141.792 295.339,141.508 296.745 M153.209 297.100 C 152.876 298.020,152.604 299.107,152.604 299.516 C 152.604 300.284,235.427 300.546,235.852 299.779 C 235.948 299.606,235.870 298.539,235.679 297.408 L 235.332 295.352 194.572 295.391 L 153.813 295.429 153.209 297.100 M239.063 295.530 C 239.063 295.649,239.523 296.821,240.086 298.134 L 241.109 300.521 245.090 300.521 L 249.071 300.521 248.719 299.089 C 247.906 295.780,247.192 295.313,242.957 295.313 C 240.815 295.313,239.063 295.410,239.063 295.530 M253.646 295.646 C 253.646 295.830,254.156 297.001,254.780 298.250 L 255.914 300.521 259.176 300.521 C 263.088 300.521,263.276 300.307,261.849 297.496 L 260.740 295.313 257.193 295.313 C 255.242 295.313,253.646 295.463,253.646 295.646 M264.583 295.755 C 264.583 295.999,265.312 297.204,266.203 298.434 L 267.823 300.670 273.597 300.320 C 280.417 299.906,279.931 300.179,278.630 297.486 L 277.580 295.313 271.082 295.313 C 267.508 295.313,264.583 295.512,264.583 295.755 M71.615 334.195 C 100.024 361.678,131.026 377.799,167.028 383.812 C 229.533 394.250,290.116 374.583,332.784 330.000 L 334.579 328.125 199.972 328.137 L 65.365 328.149 71.615 334.195 M309.896 339.258 C 309.896 340.322,289.032 352.844,279.596 357.443 C 224.766 384.168,158.715 381.713,107.813 351.058 C 101.231 347.094,92.011 340.887,91.132 339.827 C 90.574 339.155,103.784 339.063,200.197 339.063 C 260.531 339.063,309.896 339.150,309.896 339.258 M195.443 363.380 C 195.944 363.511,196.764 363.511,197.266 363.380 C 197.767 363.249,197.357 363.142,196.354 363.142 C 195.352 363.142,194.941 363.249,195.443 363.380 M197.024 395.698 C 198.682 395.802,201.260 395.801,202.753 395.696 C 204.247 395.591,202.891 395.506,199.740 395.507 C 196.589 395.509,195.367 395.594,197.024 395.698 " stroke="none" fill="#000000" fill-rule="evenodd"></path></g></svg>